<?xml version="1.0" encoding="UTF-8" standalone="no"?>
<svg
   xmlns:dc="http://purl.org/dc/elements/1.1/"
   xmlns:cc="http://creativecommons.org/ns#"
   xmlns:rdf="http://www.w3.org/1999/02/22-rdf-syntax-ns#"
   xmlns:svg="http://www.w3.org/2000/svg"
   xmlns="http://www.w3.org/2000/svg"
   xmlns:sodipodi="http://sodipodi.sourceforge.net/DTD/sodipodi-0.dtd"
   xmlns:inkscape="http://www.inkscape.org/namespaces/inkscape"
   width="100%"
   height="100%"
   viewBox="0 0 768 742"
   version="1.1"
   xml:space="preserve"
   style="fill-rule:evenodd;clip-rule:evenodd;stroke-linejoin:round;stroke-miterlimit:1.41421;"
   id="svg36"
   sodipodi:docname="icon.svg"
   inkscape:version="0.92.0 r15299"><metadata
     id="metadata42"><rdf:RDF><cc:Work
         rdf:about=""><dc:format>image/svg+xml</dc:format><dc:type
           rdf:resource="http://purl.org/dc/dcmitype/StillImage" /><dc:title></dc:title></cc:Work></rdf:RDF></metadata><defs
     id="defs40" /><sodipodi:namedview
     pagecolor="#ffffff"
     bordercolor="#666666"
     borderopacity="1"
     objecttolerance="10"
     gridtolerance="10"
     guidetolerance="10"
     inkscape:pageopacity="0"
     inkscape:pageshadow="2"
     inkscape:window-width="1920"
     inkscape:window-height="1001"
     id="namedview38"
     showgrid="false"
     inkscape:zoom="0.89960755"
     inkscape:cx="289.04125"
     inkscape:cy="367.27858"
     inkscape:window-x="-9"
     inkscape:window-y="-9"
     inkscape:window-maximized="1"
     inkscape:current-layer="svg36" /><g
     id="g104"
     inkscape:export-xdpi="7.3148355"
     inkscape:export-ydpi="7.3148355"><g
       style="fill:none"
       transform="matrix(0.764165,0,0,0.764165,125.8497,68.684)"
       id="g4"><rect
         x="-90.716003"
         y="-33.741001"
         width="858.716"
         height="858.716"
         style="fill:none"
         id="rect2" /></g><g
       transform="matrix(1.0645525,0,0,1.0597462,-23.921958,-22.147709)"
       id="g76"><g
         id="g8"
         transform="matrix(0.316907,-0.404484,0.404484,0.316907,-262.889,725.649)"><circle
           id="circle6"
           style="fill:#dfc8e1"
           r="347.58401"
           cy="906.07397"
           cx="1293.04" /></g><g
         id="g12"
         transform="matrix(0.81169,0,0,0.81169,-691.846,-380.309)"><circle
           id="circle10"
           style="fill:#956eb0"
           r="347.58401"
           cy="906.07397"
           cx="1293.04" /></g><path
         d="m 504.8706,397.48413 c -7.3995,-46.45281 -38.2311,-61.25195 -85.9171,-67.41827 -35.7644,-4.93301 -88.3834,-7.81063 -113.0486,-11.09933 -20.5546,-2.8776 -34.9425,-5.75522 -38.6424,-23.84301 -1.2333,-6.16632 -1.2333,-9.86609 -1.2333,-16.0324 0,-4.93306 0.4112,-11.09937 1.6445,-15.62131 3.6995,-15.21023 16.8546,-20.14325 33.2978,-23.43195 16.8549,-3.28869 36.1757,-4.11085 54.2635,-4.11085 2.0554,0 4.1109,0 5.7554,0 17.2657,0 33.709,1.64433 43.9861,4.11085 21.7877,5.34414 29.5982,14.38803 31.654,32.47587 0.4109,2.46654 0.4109,5.75523 0.4109,9.04392 0,2.87758 0,6.16627 0,9.04388 h 58.7855 c 0,-13.56586 -0.4112,-25.48735 -1.6445,-35.76456 -5.755,-40.69758 -32.4757,-62.4852 -80.1617,-68.65146 -13.155,-1.64437 -32.065,-2.46653 -49.7416,-2.46653 -3.7,0 -7.3995,0 -10.6882,0 -18.91,0 -46.0419,0.82216 -64.1298,3.69978 -39.4645,5.75522 -70.2956,21.78761 -77.6951,61.66302 -1.6445,9.45502 -2.8779,21.78759 -2.8779,33.29803 0,9.86609 0.8221,19.32109 2.0554,27.13172 6.1662,37.40889 30.4207,53.85237 72.3514,59.19651 31.2428,3.69977 94.1388,8.22175 125.3815,12.33262 23.8429,3.28869 34.5311,12.74369 38.2312,27.54279 1.2333,4.52199 1.6441,10.68825 1.6441,16.85456 0,7.3996 -0.8221,14.38807 -2.4662,19.32108 -5.3442,15.21024 -16.0325,23.02087 -39.0536,26.30956 -13.5658,2.05546 -26.7203,2.87762 -41.5194,2.87762 -2.8779,0 -5.7554,0 -8.6329,0 -13.1549,-0.41109 -38.2312,-1.23325 -46.864,-2.87762 -19.3211,-3.69978 -39.8756,-7.81063 -41.1085,-40.2865 0,-2.87762 0,-14.38801 0,-18.08784 h -60.4298 c 0,9.04392 0,16.8546 0.4108,24.25415 1.6445,52.20803 27.5429,78.10651 83.8618,85.91714 18.0878,2.46653 42.3418,3.69978 62.4851,3.69978 3.2887,0 6.1662,0 9.0441,0 20.5541,0 38.2311,-1.23325 58.3744,-3.69978 46.4527,-6.1663 72.3514,-25.89847 80.573,-59.1965 2.4662,-10.27717 3.6996,-24.25411 3.6996,-37.82001 0,-10.27716 -0.8221,-20.14325 -2.0555,-28.36496 z"
         style="fill:#ffffff;fill-rule:nonzero;stroke-width:3.28869462"
         id="path14"
         inkscape:connector-curvature="0" /></g></g></svg>