<?xml version="1.0" encoding="UTF-8" standalone="no"?>
<!DOCTYPE svg PUBLIC "-//W3C//DTD SVG 1.1//EN" "http://www.w3.org/Graphics/SVG/1.1/DTD/svg11.dtd">
<svg width="100%" height="100%" viewBox="0 0 768 742" version="1.1" xmlns="http://www.w3.org/2000/svg" xmlns:xlink="http://www.w3.org/1999/xlink" xml:space="preserve" xmlns:serif="http://www.serif.com/" style="fill-rule:evenodd;clip-rule:evenodd;stroke-linejoin:round;stroke-miterlimit:1.41421;">
    <g transform="matrix(1,0,0,1,-959.08,-132.215)">
        <g transform="matrix(0.764165,0,0,0.764165,1084.3,200.899)">
            <rect x="-90.716" y="-33.741" width="858.716" height="858.716" style="fill:none;"/>
        </g>
        <g transform="matrix(0.316907,-0.404484,0.404484,0.316907,696.191,857.864)">
            <circle cx="1293.04" cy="906.074" r="347.584" style="fill:rgb(223,200,225);"/>
        </g>
        <g transform="matrix(0.81169,0,0,0.81169,267.234,-248.094)">
            <circle cx="1293.04" cy="906.074" r="347.584" style="fill:rgb(149,110,176);"/>
        </g>
        <g transform="matrix(0.81169,0,0,0.81169,382.494,-120.269)">
            <path d="M988.351,688.78C986.101,674.655 976.726,670.155 962.226,668.28C951.351,666.78 935.351,665.905 927.851,664.905C921.601,664.03 917.226,663.155 916.101,657.655C915.726,655.78 915.726,654.655 915.726,652.78C915.726,651.28 915.851,649.405 916.226,648.03C917.351,643.405 921.351,641.905 926.351,640.905C931.476,639.905 937.351,639.655 942.851,639.655C943.476,639.655 944.101,639.655 944.601,639.655C949.851,639.655 954.851,640.155 957.976,640.905C964.601,642.53 966.976,645.28 967.601,650.78C967.726,651.53 967.726,652.53 967.726,653.53C967.726,654.405 967.726,655.405 967.726,656.28L985.601,656.28C985.601,652.155 985.476,648.53 985.101,645.405C983.351,633.03 975.226,626.405 960.726,624.53C956.726,624.03 950.976,623.78 945.601,623.78C944.476,623.78 943.351,623.78 942.351,623.78C936.601,623.78 928.351,624.03 922.851,624.905C910.851,626.655 901.476,631.53 899.226,643.655C898.726,646.53 898.351,650.28 898.351,653.78C898.351,656.78 898.601,659.655 898.976,662.03C900.851,673.405 908.226,678.405 920.976,680.03C930.476,681.155 949.601,682.53 959.101,683.78C966.351,684.78 969.601,687.655 970.726,692.155C971.101,693.53 971.226,695.405 971.226,697.28C971.226,699.53 970.976,701.655 970.476,703.155C968.851,707.78 965.601,710.155 958.601,711.155C954.476,711.78 950.476,712.03 945.976,712.03C945.101,712.03 944.226,712.03 943.351,712.03C939.351,711.905 931.726,711.655 929.101,711.155C923.226,710.03 916.976,708.78 916.601,698.905C916.601,698.03 916.601,694.53 916.601,693.405L898.226,693.405C898.226,696.155 898.226,698.53 898.351,700.78C898.851,716.655 906.726,724.53 923.851,726.905C929.351,727.655 936.726,728.03 942.851,728.03C943.851,728.03 944.726,728.03 945.601,728.03C951.851,728.03 957.226,727.655 963.351,726.905C977.476,725.03 985.351,719.03 987.851,708.905C988.601,705.78 988.976,701.53 988.976,697.405C988.976,694.28 988.726,691.28 988.351,688.78Z" style="fill:white;fill-rule:nonzero;"/>
            <path d="M1076.23,699.905L1059.73,699.905C1059.6,701.28 1059.48,702.53 1059.23,703.78C1058.23,709.155 1055.98,711.53 1050.48,712.655C1047.73,713.28 1043.85,713.405 1040.85,713.405C1039.23,713.405 1037.73,713.53 1036.23,713.53C1033.6,713.53 1031.1,713.405 1028.73,713.155C1020.48,712.405 1017.48,710.28 1016.23,701.905C1015.73,698.53 1015.73,694.78 1015.73,691.905L1075.73,691.905C1075.73,688.53 1075.85,684.53 1075.85,680.53C1075.85,676.03 1075.73,671.53 1075.35,668.155C1074.1,657.655 1068.48,650.28 1052.98,648.28C1049.98,647.905 1046.23,647.78 1042.48,647.655C1040.6,647.655 1038.85,647.53 1036.98,647.53C1033.23,647.53 1029.6,647.655 1025.98,648.03C1011.73,649.155 1001.73,653.405 999.851,672.905C999.476,677.28 999.226,682.905 999.226,688.405C999.351,694.155 999.601,699.905 1000.23,704.405C1001.98,717.78 1007.48,723.78 1018.35,726.03C1023.73,727.155 1029.48,727.53 1035.35,727.655C1036.98,727.655 1038.73,727.655 1040.35,727.655C1044.6,727.655 1048.73,727.53 1052.73,727.03C1067.1,725.28 1073.73,720.155 1075.73,704.905C1075.98,703.28 1076.23,701.655 1076.23,699.905ZM1059.73,679.155L1015.85,679.155C1015.85,677.78 1015.85,676.28 1015.98,675.28C1016.6,667.03 1019.35,663.405 1026.48,662.28C1029.35,661.905 1032.98,661.78 1036.1,661.78C1037.6,661.78 1039.23,661.655 1040.85,661.655C1043.6,661.655 1046.48,661.78 1048.73,662.03C1056.35,662.655 1059.1,666.905 1059.6,671.405C1059.73,672.53 1059.85,673.78 1059.85,674.905C1059.85,676.405 1059.73,677.905 1059.73,679.155Z" style="fill:white;fill-rule:nonzero;"/>
            <path d="M1162.85,694.28L1146.1,694.28C1146.1,697.655 1145.98,700.53 1145.73,702.155C1144.73,709.28 1141.48,711.78 1134.1,712.655C1131.48,713.03 1128.48,713.155 1125.48,713.155C1122.35,713.155 1119.35,713.03 1116.6,712.78C1108.35,711.905 1105.35,709.78 1104.1,701.405C1103.6,697.905 1103.35,693.155 1103.35,688.405C1103.35,684.03 1103.6,679.405 1103.85,676.03C1104.73,667.155 1108.1,664.155 1115.73,662.905C1118.35,662.53 1121.1,662.405 1123.85,662.405C1124.73,662.405 1125.48,662.405 1126.35,662.405C1129.48,662.405 1132.73,662.655 1135.85,663.155C1140.1,663.905 1144.85,665.155 1145.85,674.03C1145.98,675.28 1145.98,677.03 1146.1,678.53L1162.48,678.53C1162.35,676.28 1162.35,673.03 1162.23,671.03C1160.85,656.405 1154.98,649.405 1136.35,648.03C1133.48,647.78 1130.1,647.655 1125.98,647.655C1121.48,647.655 1117.6,647.78 1113.98,648.03C1098.85,648.78 1089.23,653.28 1087.35,673.03C1086.98,677.405 1086.73,683.03 1086.73,688.53C1086.73,694.28 1087.1,699.905 1087.6,704.405C1089.73,721.155 1097.85,726.28 1112.73,727.405C1116.35,727.655 1120.73,727.78 1125.85,727.78C1130.6,727.78 1134.73,727.53 1138.1,727.155C1153.6,725.53 1160.35,720.155 1162.35,703.905C1162.6,701.78 1162.73,698.155 1162.85,694.28Z" style="fill:white;fill-rule:nonzero;"/>
            <path d="M1248.35,725.905L1248.35,649.655L1231.48,649.655L1231.48,696.78C1231.48,703.53 1229.1,708.905 1221.85,711.03C1218.6,712.03 1215.35,712.28 1211.98,712.28C1211.35,712.28 1210.73,712.28 1210.1,712.28C1207.1,712.155 1203.35,712.03 1200.98,711.405C1194.35,709.655 1192.85,704.28 1192.85,698.155L1192.85,649.53L1175.85,649.53L1175.85,701.53C1175.85,716.28 1183.23,724.28 1195.35,726.155C1198.6,726.655 1204.1,727.03 1207.73,727.03C1208.35,727.03 1209.1,727.03 1209.73,727.03C1213.85,727.03 1218.35,726.655 1222.98,725.53C1227.98,724.28 1230.85,720.53 1231.73,718.03L1231.73,725.78L1248.35,725.905Z" style="fill:white;fill-rule:nonzero;"/>
            <path d="M1318.98,664.53L1318.98,648.53C1315.23,648.28 1310.23,648.28 1307.1,648.28C1292.85,648.28 1285.85,650.405 1282.23,657.28L1282.1,649.53L1265.48,649.53L1265.48,725.78L1282.1,725.78L1282.1,679.405C1282.1,668.03 1290.6,665.405 1300.48,664.53C1302.98,664.28 1306.1,664.155 1309.1,664.155C1312.6,664.155 1316.23,664.28 1318.98,664.53Z" style="fill:white;fill-rule:nonzero;"/>
            <path d="M1403.85,699.905L1387.35,699.905C1387.23,701.28 1387.1,702.53 1386.85,703.78C1385.85,709.155 1383.6,711.53 1378.1,712.655C1375.35,713.28 1371.48,713.405 1368.48,713.405C1366.85,713.405 1365.35,713.53 1363.85,713.53C1361.23,713.53 1358.73,713.405 1356.35,713.155C1348.1,712.405 1345.1,710.28 1343.85,701.905C1343.35,698.53 1343.35,694.78 1343.35,691.905L1403.35,691.905C1403.35,688.53 1403.48,684.53 1403.48,680.53C1403.48,676.03 1403.35,671.53 1402.98,668.155C1401.73,657.655 1396.1,650.28 1380.6,648.28C1377.6,647.905 1373.85,647.78 1370.1,647.655C1368.23,647.655 1366.48,647.53 1364.6,647.53C1360.85,647.53 1357.23,647.655 1353.6,648.03C1339.35,649.155 1329.35,653.405 1327.48,672.905C1327.1,677.28 1326.85,682.905 1326.85,688.405C1326.98,694.155 1327.23,699.905 1327.85,704.405C1329.6,717.78 1335.1,723.78 1345.98,726.03C1351.35,727.155 1357.1,727.53 1362.98,727.655C1364.6,727.655 1366.35,727.655 1367.98,727.655C1372.23,727.655 1376.35,727.53 1380.35,727.03C1394.73,725.28 1401.35,720.155 1403.35,704.905C1403.6,703.28 1403.85,701.655 1403.85,699.905ZM1387.35,679.155L1343.48,679.155C1343.48,677.78 1343.48,676.28 1343.6,675.28C1344.23,667.03 1346.98,663.405 1354.1,662.28C1356.98,661.905 1360.6,661.78 1363.73,661.78C1365.23,661.78 1366.85,661.655 1368.48,661.655C1371.23,661.655 1374.1,661.78 1376.35,662.03C1383.98,662.655 1386.73,666.905 1387.23,671.405C1387.35,672.53 1387.48,673.78 1387.48,674.905C1387.48,676.405 1387.35,677.905 1387.35,679.155Z" style="fill:white;fill-rule:nonzero;"/>
            <path d="M1050.54,905.072L1050.54,804.822L1032.41,804.822L1032.41,904.947L1050.54,905.072Z" style="fill:white;fill-rule:nonzero;"/>
            <path d="M1096.29,804.822L1069.16,804.822L1069.16,904.822L1086.66,904.822L1086.29,862.322C1086.29,857.072 1084.91,831.197 1084.54,821.322C1084.54,820.572 1084.79,820.322 1085.16,820.322C1085.54,820.322 1085.91,820.697 1086.04,821.072L1096.16,856.322L1113.29,904.822L1132.04,904.822L1149.04,856.697L1159.29,820.947C1159.41,820.447 1159.79,820.197 1160.04,820.197C1160.41,820.197 1160.66,820.447 1160.66,821.072C1160.41,832.822 1159.16,859.447 1159.16,861.947L1158.66,904.822L1176.29,904.822L1176.29,804.947L1148.66,804.947L1132.04,856.822L1122.66,887.322L1113.04,856.447L1096.29,804.822Z" style="fill:white;fill-rule:nonzero;"/>
            <path d="M1275.91,904.947L1275.91,888.947L1211.91,888.947L1211.91,861.322L1268.91,861.322L1268.91,845.072L1211.91,845.072L1211.91,821.072L1273.91,821.072L1273.91,804.822L1194.04,804.822L1194.04,904.822L1275.91,904.947Z" style="fill:white;fill-rule:nonzero;"/>
        </g>
    </g>
</svg>
